PathFileType	4	(X/Y/Z)	 s04c0102.trc
DataRate	CameraRate	NumFrames	NumMarkers	Units	OrigDataRate	OrigDataStartFrame	OrigNumFrames
200	200	6	50	mm	200	1501	2000
Frame#	Time	racr			lacr			c7			jug			rlel			rdr			llel			ldr			s2			lic			ric			lasi			rasi			rpsi			lpsi			rgt			lgt			rth1			rth2			rth3			rth4			rlfc			rmfc			rsh1			rsh2			rsh3			rsh4			rlmal			rmmal			rcal			rtoe			rmt5			lth1			lth2			lth4			lth3			llfc			lmfc			lsh1			lsh2			lsh3			lsh4			llmal			lmmal			lcal			ltoe			lmt5			SBIKE			LBIKE			RBIKE			
		X1	Y1	Z1	X2	Y2	Z2	X3	Y3	Z3	X4	Y4	Z4	X5	Y5	Z5	X6	Y6	Z6	X7	Y7	Z7	X8	Y8	Z8	X9	Y9	Z9	X10	Y10	Z10	X11	Y11	Z11	X12	Y12	Z12	X13	Y13	Z13	X14	Y14	Z14	X15	Y15	Z15	X16	Y16	Z16	X17	Y17	Z17	X18	Y18	Z18	X19	Y19	Z19	X20	Y20	Z20	X21	Y21	Z21	X22	Y22	Z22	X23	Y23	Z23	X24	Y24	Z24	X25	Y25	Z25	X26	Y26	Z26	X27	Y27	Z27	X28	Y28	Z28	X29	Y29	Z29	X30	Y30	Z30	X31	Y31	Z31	X32	Y32	Z32	X33	Y33	Z33	X34	Y34	Z34	X35	Y35	Z35	X36	Y36	Z36	X37	Y37	Z37	X38	Y38	Z38	X39	Y39	Z39	X40	Y40	Z40	X41	Y41	Z41	X42	Y42	Z42	X43	Y43	Z43	X44	Y44	Z44	X45	Y45	Z45	X46	Y46	Z46	X47	Y47	Z47	X48	Y48	Z48	X49	Y49	Z49	X50	Y50	Z50	
1501	7.5050	511.035101	1329.944575	-102.701204	544.207841	1308.623930	-360.184842	501.445174	1379.545502	-240.028738	465.640349	1223.605754	-247.574880	441.995736	1052.214064	44.405926	682.780100	927.494490	-68.388996	473.681192	1073.477410	-536.873150	695.373739	917.973594	-459.849924	-66.445297	1178.927031	-291.312552	99.574769	1183.017099	-439.566493	67.312206	1203.261341	-121.693558	135.541410	1136.825934	-390.032464	112.204780	1183.219399	-108.456942	-47.267945	1229.108047	-251.015088	-37.516470	1226.058725	-327.106305	32.461209	1158.475877	-101.595154	53.762611	1082.723148	-464.004982	170.076958	1076.302267	-90.865527	256.477567	1058.396756	-100.112409	321.977161	1004.708595	-100.642907	269.154044	1088.620939	-119.262072	440.692640	921.131347	-125.260312	424.801781	896.305080	-237.000030	389.770378	811.542938	-98.990461	375.842686	721.490762	-108.490543	318.366301	657.028174	-112.666543	405.794118	710.816407	-130.095697	267.194209	511.234143	-114.064469	288.951418	516.641515	-199.055357	194.805524	481.135741	-152.123799	492.931340	442.983579	-145.494553	425.321595	422.487876	-88.990404	106.190599	1004.497830	-476.441142	176.475494	953.869738	-480.461104	203.659143	975.387297	-470.027118	213.334748	872.975280	-488.126743	287.717940	730.359287	-473.333956	317.259657	702.151189	-364.850391	236.467525	617.870671	-491.503335	205.632979	540.750895	-464.811898	138.146811	483.181470	-460.260624	229.652993	529.824319	-435.437486	50.150431	365.590902	-447.696540	48.619050	368.837423	-359.043020	-28.421553	384.004052	-403.929213	221.055307	209.806958	-407.388227	141.699272	217.922623	-468.883108	-177.818757	937.219276	-279.936596	-3.359900	85.504760	-484.692496	-15.078336	80.363947	-84.241937	
1502	7.5100	511.276673	1329.149274	-103.153339	543.197416	1308.506367	-361.037643	501.023163	1379.110902	-240.708358	465.301346	1223.169034	-248.342669	441.004482	1051.824195	44.161606	682.620026	927.699881	-68.005505	472.984785	1072.802883	-536.732363	694.758780	917.826432	-460.074504	-67.132684	1177.137132	-291.247372	99.244316	1181.899684	-438.725810	67.105479	1200.867659	-120.854254	135.466870	1136.085125	-389.298362	112.017722	1181.312302	-107.889147	-49.082665	1226.997625	-250.500252	-37.905838	1224.278174	-326.910924	32.513171	1153.552762	-100.959153	54.769294	1081.871761	-464.160457	169.664033	1067.935519	-90.469858	255.678730	1048.808181	-99.365349	320.291156	993.920174	-101.104753	269.095197	1079.172804	-117.507674	437.027447	908.120067	-125.356251	420.713370	882.990306	-237.154929	386.832506	796.409075	-99.182494	374.348810	706.116598	-109.612423	318.071677	640.812215	-113.655736	404.346122	696.127151	-131.441777	269.361552	496.286689	-114.743291	290.671616	502.420249	-199.583215	198.110876	464.727640	-153.384489	496.693761	435.516005	-145.162406	429.532615	413.264697	-88.844688	108.239757	1004.969007	-476.121158	179.372663	955.526395	-480.196148	206.133993	977.437162	-469.425236	217.585584	875.303431	-488.133210	293.381520	734.676223	-473.294900	321.703979	706.575177	-364.377897	240.688404	623.771317	-491.537226	207.633742	547.459258	-464.487009	138.721200	491.511808	-459.873133	231.282883	536.036079	-434.934005	47.719654	376.407558	-447.209527	46.271804	379.579886	-358.446616	-30.527549	396.139526	-403.426376	215.649241	217.173414	-407.459292	136.374429	227.043723	-468.813028	-177.804913	937.112996	-280.081981	-3.363824	85.418452	-484.695440	-15.099069	80.362596	-84.254140	
1503	7.5150	511.536015	1328.727257	-102.979911	542.207590	1308.463608	-361.813515	500.649352	1378.613301	-241.312526	465.216467	1222.594502	-248.448165	440.341619	1051.367170	43.999487	682.351628	927.519708	-68.248003	472.238779	1072.358097	-536.827989	694.132227	917.773817	-460.357924	-67.909724	1174.864164	-291.624027	98.906518	1180.894548	-437.962748	67.018896	1198.415025	-119.982902	135.386232	1135.244733	-388.631245	111.900284	1179.408506	-107.305807	-49.856425	1224.750410	-249.822160	-38.303903	1222.338375	-326.653639	32.480044	1148.400409	-100.423438	55.766158	1081.115037	-464.303437	169.241716	1059.674695	-90.062785	254.909720	1038.922168	-99.091765	318.645748	983.359005	-101.419476	269.059501	1069.426686	-116.503918	432.914955	895.388098	-125.414212	416.928412	869.507184	-237.003912	383.814266	781.792370	-99.190119	372.715729	691.149509	-110.439103	318.070208	624.958958	-114.600505	403.232061	682.154842	-132.796611	271.716507	481.530404	-115.847227	292.807822	488.859151	-200.470891	201.000821	449.281847	-154.079081	500.210527	427.299188	-145.160922	433.497262	403.583961	-89.019821	110.068652	1005.255823	-475.207989	182.104054	957.328409	-480.008955	208.461135	979.472586	-468.981941	221.661918	877.732405	-488.322657	298.787623	739.088889	-473.190507	326.763442	710.862245	-364.336438	244.422335	629.696695	-491.500625	209.584446	554.245540	-464.314665	139.162264	500.203471	-459.546699	232.922804	542.348858	-434.734793	45.694607	387.168653	-446.757542	44.228365	390.346257	-358.021091	-32.428829	408.541317	-402.737752	210.751445	225.126340	-407.783324	131.619531	236.459165	-468.860516	-177.813396	937.024144	-280.319776	-3.377866	85.312084	-484.778933	-15.103624	80.322630	-84.272462	
1504	7.5200	511.766981	1327.926047	-103.297728	541.346551	1308.458386	-362.553884	500.353260	1378.032838	-241.736537	465.058784	1221.996878	-248.908705	439.993417	1050.516544	43.675160	682.288858	927.305328	-68.679487	471.534577	1072.055682	-536.977756	693.575058	917.759618	-460.619393	-68.670750	1172.950073	-291.328984	98.492936	1179.911052	-437.283286	66.974918	1196.024322	-119.596554	135.303771	1134.636917	-388.017264	111.857347	1177.550341	-106.711656	-49.053383	1222.951525	-248.661445	-38.632966	1220.425105	-326.514118	32.638276	1143.358398	-99.819046	56.742129	1080.395025	-464.302413	168.853346	1051.820245	-89.686504	254.310605	1029.513663	-99.171639	316.838624	972.660990	-102.052666	269.394047	1061.021394	-114.094805	428.850624	882.847382	-126.527972	413.259933	857.423992	-237.166590	380.904989	770.002566	-99.214635	372.353865	679.086392	-110.742065	319.310804	611.624172	-115.102226	403.829292	671.359993	-133.118994	274.179325	467.658974	-116.461882	294.841309	475.710287	-201.248419	204.025629	434.734408	-154.717172	503.451888	418.224315	-145.207477	437.103591	393.455176	-89.245474	111.904237	1006.002729	-475.186225	184.661655	959.139773	-479.904302	210.648524	981.655156	-468.693015	225.469333	880.268117	-488.556896	304.001337	743.453828	-473.047956	331.783239	715.006406	-364.388157	248.056047	635.764795	-491.634481	211.507365	561.087092	-464.134459	139.867735	508.665883	-459.237473	234.599917	548.752435	-434.701257	44.113242	397.835674	-446.329533	42.496054	401.215440	-357.651772	-33.669816	420.648474	-402.211208	206.483298	233.513725	-408.097124	127.445384	246.153368	-468.883402	-177.830050	936.952633	-280.477524	-3.381673	85.241379	-484.789635	-15.113123	80.292545	-84.279483	
1505	7.5250	512.076213	1326.525957	-104.102309	540.640574	1308.452539	-363.207113	500.167246	1377.413889	-242.154114	464.812735	1221.439982	-250.070002	439.718532	1049.663129	43.608374	682.443774	927.066750	-69.112027	470.953603	1071.859906	-537.136390	693.134948	917.788823	-460.839217	-69.790568	1172.061621	-291.562204	98.056846	1179.187968	-436.765573	67.105439	1193.601893	-118.776458	135.240885	1134.180221	-387.539511	111.891955	1175.777352	-106.110807	-49.454826	1220.558688	-247.625123	-39.166644	1218.542464	-325.977792	32.965558	1138.469966	-99.287612	57.647926	1079.917669	-464.274815	168.562890	1044.770188	-89.272687	253.457418	1020.942322	-98.610180	314.996286	962.860988	-102.615114	269.503883	1052.286682	-112.886157	425.145849	871.451912	-126.187572	409.597422	846.806987	-237.097481	378.137758	759.152383	-99.446866	371.575072	668.166685	-111.061710	320.114173	599.699929	-115.742565	403.249795	660.955554	-133.528267	276.449194	454.521118	-117.038712	297.723812	462.633017	-202.915669	206.469702	421.194236	-155.242003	506.394308	408.581911	-145.352801	440.179583	383.170634	-89.523179	113.655736	1006.884842	-475.347543	187.074500	961.086362	-479.933047	212.680285	983.937862	-468.609048	229.034889	882.899872	-488.963676	309.094894	747.912469	-472.892284	336.674990	719.282340	-364.407055	250.961275	641.715567	-491.286588	213.460139	567.997311	-464.087377	140.767839	516.943167	-458.904461	236.286179	555.213305	-434.672339	42.882811	408.595331	-445.870368	41.047447	412.490436	-357.456400	-34.679795	432.624949	-401.991078	202.916323	242.446877	-408.252203	123.945658	256.092191	-468.945546	-177.843916	936.854149	-280.538142	-3.390816	85.210611	-484.796048	-15.112228	80.286747	-84.309083	
1506	7.5300	512.417251	1325.386038	-104.396706	540.024626	1308.446092	-363.943949	500.092570	1376.807484	-242.505586	464.673997	1220.879365	-250.783478	439.843386	1048.507274	43.464280	682.704431	926.529502	-69.668832	470.476658	1071.743314	-537.339444	692.807136	917.852526	-461.180836	-69.719714	1169.987540	-291.714670	97.596285	1178.762523	-436.304658	67.410284	1191.530809	-117.920069	135.164992	1133.962912	-387.170727	112.005275	1174.124334	-105.506440	-49.848326	1218.284329	-246.377643	-40.749258	1217.347494	-324.392933	33.584445	1133.704158	-99.372991	58.516655	1079.695435	-464.219384	168.194830	1039.030639	-88.727808	252.434194	1013.217660	-98.032839	312.610121	953.480428	-103.174559	269.266389	1044.363975	-111.943271	421.443085	862.114996	-126.147034	405.344217	838.335601	-237.700328	375.712466	748.522083	-99.765944	370.581241	657.621999	-111.373747	319.986255	588.260209	-115.976389	402.168703	650.830891	-133.613656	278.545469	442.502524	-117.445696	299.102928	451.248649	-202.964699	208.472719	408.845802	-155.119130	508.899256	398.542425	-145.572630	442.800163	372.721166	-89.799373	115.223787	1008.071819	-475.548840	189.268236	963.194651	-480.085343	214.515766	986.400260	-468.688206	232.388301	885.670343	-489.452203	314.061817	752.561233	-472.756202	341.565607	723.729740	-364.497932	254.362677	648.030538	-491.391931	215.578570	575.093416	-464.029443	141.878844	525.380417	-458.683396	238.177281	561.883783	-434.637964	42.033771	419.256125	-445.530347	40.533504	423.094810	-356.964227	-35.300548	444.499815	-401.541138	200.013242	251.605402	-408.361114	121.131744	266.165037	-468.915438	-177.889232	936.780334	-280.600423	-3.374134	85.175320	-484.799518	-15.133395	80.299906	-84.307145	
